<svg width="22" height="22" viewBox="0 0 22 22" fill="none" xmlns="http://www.w3.org/2000/svg">
<path fill-rule="evenodd" clip-rule="evenodd" d="M13.0644 8.96603L8.01541 10.8278C7.89441 10.8727 7.86783 10.9754 7.86324 11.0331C7.85866 11.0881 7.86691 11.1926 7.97966 11.2586L9.76078 12.3027L9.75986 12.3045C9.8772 12.3715 9.97711 12.4695 10.0404 12.585L11.0744 14.356C11.1376 14.4624 11.2403 14.4725 11.298 14.466C11.3539 14.4615 11.4557 14.4349 11.5006 14.3148L13.366 9.26671C13.4119 9.14203 13.3523 9.05862 13.3129 9.0192C13.2734 8.97887 13.1864 8.92112 13.0644 8.96603Z" fill="#2297D1"/>
<path fill-rule="evenodd" clip-rule="evenodd" d="M14.656 9.74331L12.7897 14.7941C12.5697 15.3826 12.0444 15.7814 11.4183 15.8355C11.3697 15.8401 11.3202 15.8428 11.2717 15.8428C10.7033 15.8428 10.1827 15.5486 9.88933 15.0526L8.92958 13.41L7.28324 12.4447C6.74241 12.1266 6.43991 11.5409 6.49308 10.9148C6.54716 10.2887 6.94591 9.76164 7.53533 9.53889L12.5871 7.67622C13.1838 7.45622 13.8347 7.59738 14.2847 8.04563C14.7339 8.4948 14.8769 9.14472 14.656 9.74331ZM11.0003 2.7583C6.19883 2.7583 2.29199 6.66513 2.29199 11.4666C2.29199 16.2681 6.19883 20.175 11.0003 20.175C15.8018 20.175 19.7087 16.2681 19.7087 11.4666C19.7087 6.66513 15.8018 2.7583 11.0003 2.7583Z" fill="#2297D1"/>
</svg>
