<svg width="22" height="22" viewBox="0 0 22 22" fill="none" xmlns="http://www.w3.org/2000/svg">
<path fill-rule="evenodd" clip-rule="evenodd" d="M13.3008 12.8945L13.2064 12.8294C13.0148 12.6956 12.7499 12.713 12.5913 12.8707L12.3787 13.0852C12.1568 13.3107 11.8076 13.3538 11.5353 13.1906C10.4793 12.5544 9.95224 11.9403 9.29315 10.9604C9.11257 10.6909 9.14465 10.3306 9.37107 10.0978L9.58465 9.87778C9.7524 9.70636 9.77257 9.45061 9.63599 9.2517C9.49024 9.04817 9.34815 8.84375 9.21249 8.6485C9.13365 8.53667 9.0044 8.46334 8.86232 8.45142C8.8504 8.4505 8.83665 8.44958 8.82107 8.44958C8.7349 8.44958 8.6029 8.47342 8.48924 8.588L8.37465 8.7035L8.3719 8.70625C7.3984 9.68253 8.44982 11.4297 9.75882 12.7396C11.0513 14.0275 12.782 15.0615 13.7555 14.0862L13.8902 13.9597C14.0085 13.8396 14.0167 13.6792 14.0094 13.5967C14.0021 13.5133 13.9663 13.3584 13.8096 13.2493C13.6409 13.1283 13.475 13.0146 13.3008 12.8945Z" fill="#43B53F"/>
<path fill-rule="evenodd" clip-rule="evenodd" d="M14.8458 14.9486L14.7101 15.0769C14.1785 15.6059 13.5359 15.8671 12.82 15.8671C11.621 15.8671 10.2166 15.1374 8.78755 13.7129C6.51789 11.4433 5.9853 9.1534 7.39605 7.73715L7.51247 7.61981C7.90205 7.22931 8.44472 7.03131 8.98005 7.08173C9.52821 7.1294 10.0232 7.41357 10.3395 7.86273C10.4733 8.05615 10.6126 8.25507 10.7611 8.46223C11.2231 9.1314 11.202 10.0032 10.7419 10.6348C11.071 11.083 11.3771 11.4139 11.8135 11.7302C12.4478 11.2563 13.3232 11.2361 13.9896 11.6999L14.0804 11.7614C14.2628 11.8879 14.437 12.007 14.6038 12.128C15.0447 12.4342 15.3298 12.9274 15.3793 13.4737C15.4288 14.0219 15.2335 14.559 14.8458 14.9486ZM19.5538 9.80518C18.9011 6.33373 16.1291 3.56265 12.6577 2.91181C10.0791 2.4269 7.45655 3.1034 5.45639 4.76257C3.44522 6.4309 2.29297 8.87382 2.29297 11.4662C2.29297 12.7697 2.58997 14.0649 3.1748 15.3125C3.22247 15.4207 3.23714 15.5298 3.21514 15.6306C3.07214 16.2805 2.77239 17.5886 2.55605 18.5236C2.4653 18.9187 2.58447 19.322 2.8723 19.6016C3.15739 19.8784 3.56072 19.9875 3.94572 19.8858C4.81747 19.6658 6.01189 19.3734 6.76172 19.1983C6.8598 19.1754 6.96797 19.1891 7.08072 19.245C8.2898 19.8537 9.64554 20.1745 11.0013 20.1745C13.5918 20.1745 16.0338 19.0223 17.7003 17.0139C19.3622 15.0128 20.0369 12.3847 19.5538 9.80518Z" fill="#43B53F"/>
</svg>
